<?xml version="1.0" encoding="UTF-8" standalone="no"?>
<!-- Created with Inkscape (http://www.inkscape.org/) -->

<svg
   xmlns:dc="http://purl.org/dc/elements/1.1/"
   xmlns:cc="http://creativecommons.org/ns#"
   xmlns:rdf="http://www.w3.org/1999/02/22-rdf-syntax-ns#"
   xmlns:svg="http://www.w3.org/2000/svg"
   xmlns="http://www.w3.org/2000/svg"
   xmlns:sodipodi="http://sodipodi.sourceforge.net/DTD/sodipodi-0.dtd"
   xmlns:inkscape="http://www.inkscape.org/namespaces/inkscape"
   width="767.1142"
   height="381.12"
   id="svg1341"
   sodipodi:version="0.32"
   inkscape:version="0.92.1 r15371"
   sodipodi:docname="gpl-v3-logo.svg"
   inkscape:output_extension="org.inkscape.output.svg.inkscape"
   version="1.1">
  <defs
     id="defs1343">
    <inkscape:perspective
       sodipodi:type="inkscape:persp3d"
       inkscape:vp_x="0 : 561.25983 : 1"
       inkscape:vp_y="0 : 1066.6667 : 0"
       inkscape:vp_z="793.70078 : 561.25983 : 1"
       inkscape:persp3d-origin="396.85039 : 374.17322 : 1"
       id="perspective79" />
  </defs>
  <sodipodi:namedview
     id="base"
     pagecolor="#ffffff"
     bordercolor="#666666"
     borderopacity="1.0"
     inkscape:pageopacity="0.0"
     inkscape:pageshadow="2"
     inkscape:zoom="0.80227655"
     inkscape:cx="340.94226"
     inkscape:cy="4.4273048"
     inkscape:document-units="px"
     inkscape:current-layer="layer1"
     inkscape:window-width="1920"
     inkscape:window-height="1017"
     inkscape:window-x="-8"
     inkscape:window-y="-8"
     showgrid="false"
     fit-margin-top="0"
     fit-margin-left="0"
     fit-margin-right="0"
     fit-margin-bottom="0"
     inkscape:window-maximized="1" />
  <metadata
     id="metadata1346">
    <rdf:RDF>
      <cc:Work
         rdf:about="">
        <dc:format>image/svg+xml</dc:format>
        <dc:type
           rdf:resource="http://purl.org/dc/dcmitype/StillImage" />
        <dc:title></dc:title>
      </cc:Work>
    </rdf:RDF>
  </metadata>
  <g
     inkscape:label="Layer 1"
     inkscape:groupmode="layer"
     id="layer1"
     transform="translate(-1,3.9590214)">
    <g
       id="g2486"
       transform="translate(-27.335441,-11.767188)">
      <path
         d="m 398.45583,238.6111 c 0,0 -0.0182,0 -0.0182,0 -1.70976,0 -3.21946,0.56387 -4.6382,1.70977 -1.05496,0.8367 -1.78253,1.96442 -2.36457,3.21946 0,0 0.0727,0 0.0727,0 0.58205,-1.25504 1.30961,-2.38276 2.34639,-3.21946 1.41874,-1.1459 2.92843,-1.69158 4.60183,-1.70977 z"
         id="path2577"
         style="fill:#bd0000;fill-opacity:1;fill-rule:evenodd;stroke:none;stroke-width:1.06666669pt;stroke-linecap:butt;stroke-linejoin:miter"
         inkscape:connector-curvature="0" />
      <path
         style="fill:#bd0000;fill-opacity:1;fill-rule:evenodd;stroke:none;stroke-width:1.06666669pt;stroke-linecap:butt;stroke-linejoin:miter"
         d="m 114.17756,19.470197 c 2e-5,0 -63.263719,276.018583 -63.263719,276.018583 0.01819,0 0.02047,0 0.05684,0 0,0 292.672869,0 292.672869,0 10e-6,0 152.21945,0 152.21945,0 -18.13448,-1.58243 -32.45149,-7.94861 -40.98215,-19.5532 -1.58243,-2.14633 -2.88979,-4.45859 -4.0357,-6.87773 -0.72754,-1.78251 -1.41192,-3.58096 -2.10311,-5.39987 -1.81893,-5.78411 -2.54418,-12.20257 -2.21679,-19.04164 0.90946,-19.06212 9.85392,-41.73655 25.35097,-65.48051 16.46107,-25.23366 40.31827,-51.68095 69.85724,-76.2234 6.62079,-5.496739 13.4667,-10.924793 20.63319,-16.199619 8.85803,-6.51711 17.78433,-12.519051 26.71514,-18.132192 32.90395,-20.715488 65.72605,-35.210795 94.81032,-42.573675 -27.79282,9.067211 -59.01659,24.460139 -89.86519,45.415723 -1.1095,0.749386 -2.20542,1.51696 -3.29677,2.273621 -17.11587,11.859253 -32.62201,24.454251 -46.15464,37.173822 -43.54457,40.94354 -66.56049,83.36943 -56.1018,108.22474 0.74577,1.70976 1.63473,3.34224 2.67152,4.88831 11.2408,16.53383 39.09959,19.39177 74.4045,10.51553 2.40095,-0.60027 4.8019,-1.28004 7.2756,-1.98942 11.27721,-3.25586 23.25014,-7.65305 35.5823,-13.07337 2.96479,-1.30962 5.96146,-2.6556 8.98083,-4.09254 0.3092,-0.1455 0.60024,-0.29102 0.90945,-0.45472 38.92451,-19.34039 68.83867,-41.59422 75.31396,-54.96498 1.41875,-2.9084 1.75979,-5.38805 0.79577,-7.33245 -4.61999,-9.36734 -36.94875,-3.03893 -76.10973,13.92597 -3.1467,1.36416 -6.32978,2.76792 -9.54924,4.26305 2.61922,-2.43185 5.34531,-4.87283 8.12822,-7.27561 4.43813,-3.82334 9.03313,-7.56208 13.92597,-11.25444 7.6576,-5.79869 15.39931,-11.04076 23.02051,-15.68805 35.68686,-26.92338 53.72811,-52.391698 49.96299,-61.842695 -0.70939,-1.780726 -2.21906,-3.00575 -4.54727,-3.751499 -7.43934,-2.366368 -21.01742,0.457909 -37.51487,7.218773 -13.60537,5.580416 -29.23204,13.856854 -45.07468,24.157311 0,0 -2.15995,1.42101 -2.15995,1.42101 2e-5,0 -0.39789,0.22735 -0.39789,0.22735 2e-5,3e-5 -7.61665,5.05883 -7.61665,5.05883 -2e-5,-1e-5 4.37674,-8.01454 4.37674,-8.01454 6.49349,-11.886547 17.0704,-24.288713 30.23925,-35.809641 9.65838,-8.423349 20.6923,-16.360128 32.56974,-23.304704 4.4927,-2.630112 8.97856,-5.072917 13.47124,-7.275605 4.60184,-2.248203 9.20592,-4.246283 13.69863,-6.025163 13.0526,-5.16192 25.51233,-8.298453 36.37804,-9.15136 -0.98951,0 -30.52345,0 -30.52345,0 10e-6,0 -102.8817,0 -102.8817,0 10e-6,0 -453.64581,0 -453.64581,0 0,0 -35.98017,0 -35.98017,0 z m 326.37942,0.397974 c -1.78249,27.20529 3.4923,67.052917 15.46068,111.294079 2.1281,7.87222 4.44493,15.88357 6.99141,23.9868 1.58246,5.00377 3.21492,9.92939 4.8883,14.77858 -0.98219,1.44422 -1.97125,2.87932 -2.89888,4.31989 -14.93318,22.88542 -23.66166,44.51311 -25.86252,63.32057 -6.31162,-21.13566 -11.06348,-44.28619 -13.75546,-68.83412 -0.76393,-7.0337 -1.36191,-13.98871 -1.76207,-20.86053 -2.94663,-49.916149 3.56959,-95.165013 16.93854,-128.005269 z M 142.54109,55.279904 c 0.34063,-0.008 0.67641,0 1.02312,0 0,-2.1e-5 67.24257,0 67.24257,0 5.74775,-2.1e-5 10.19269,1.077237 13.35757,3.239915 3.14669,2.175424 4.32673,4.989258 3.58096,8.412426 2e-5,2.2e-5 -8.01454,36.207535 -8.01454,36.207535 0,3e-5 -23.70257,0 -23.70257,0 2e-5,3e-5 7.78718,-35.241241 7.78718,-35.241241 -2e-5,0 -59.34171,0 -59.34171,0 -2e-5,0 -21.42896,96.856591 -21.42896,96.856591 3e-5,0 -7.73033,35.07073 -7.73033,35.07073 0,3e-5 59.28487,0 59.28487,0 0,3e-5 0.0569,-0.22737 0.0569,-0.22737 0,2e-5 11.8797,-53.65765 11.8797,-53.65765 0,-2e-5 -27.85195,0 -27.85195,0 0,-2e-5 2.67151,-12.10707 2.67151,-12.10707 -1e-5,-2e-5 51.55454,0 51.55454,0 0,-2e-5 -14.77859,66.95838 -14.77859,66.95838 -0.20008,0.95309 -0.55021,1.81662 -1.02314,2.6715 -1.21865,2.21906 -3.3445,4.11983 -6.30931,5.68408 -4.1107,2.16452 -9.03086,3.23992 -14.77859,3.23992 0,2e-5 -67.18573,0 -67.18573,0 -5.74776,2e-5 -10.192688,-1.07543 -13.357573,-3.23992 -3.146677,-2.16448 -4.344907,-4.92878 -3.58096,-8.35558 1.1e-5,-2e-5 29.614013,-133.859905 29.614013,-133.859905 0.76392,-3.423157 3.14672,-6.237024 7.27561,-8.412426 0.14552,-0.0782 0.30922,-0.09595 0.45472,-0.170518 3.76856,-1.88768 8.19133,-2.948725 13.30074,-3.069397 z m 105.3827,0 c -2e-5,-2.1e-5 84.63582,0 84.63582,0 5.67499,-2.1e-5 10.13584,1.077237 13.30072,3.239915 3.18312,2.175424 4.40177,4.989258 3.63781,8.412426 3e-5,2.2e-5 -15.80171,71.391945 -15.80171,71.391945 -0.74573,3.40132 -3.18536,6.17654 -7.33245,8.35559 -4.14709,2.1863 -9.02859,3.29675 -14.72175,3.29675 -2e-5,0 -61.50165,0 -61.50165,0 0,0 -11.87972,53.6008 -11.87972,53.6008 0,2e-5 -1.93258,8.81032 -1.93258,8.81032 1e-5,2e-5 -23.19102,0 -23.19102,0 0,2e-5 1.76206,-7.9577 1.76206,-7.9577 0,2e-5 33.02447,-149.150046 33.02447,-149.150046 z m 116.92135,0 c -1e-5,-2.1e-5 23.19102,0 23.19102,0 2e-5,-2.1e-5 -26.26042,118.626566 -26.26042,118.626566 3e-5,3e-5 -5.7409,25.91939 -5.7409,25.91939 0,3e-5 55.47654,0 55.47654,0 0.58206,4.25444 1.26186,8.43287 1.98942,12.56179 -2e-5,2e-5 -83.44219,0 -83.44219,0 2e-5,2e-5 6.59353,-29.78455 6.59353,-29.78455 2e-5,0 28.193,-127.323196 28.193,-127.323196 z M 268.3296,67.898539 c 2e-5,0 -15.40384,69.459351 -15.40384,69.459351 0,-2e-5 57.80702,0 57.80702,0 -10e-6,-2e-5 15.34699,-69.459351 15.34699,-69.459351 2e-5,0 -57.75017,0 -57.75017,0 z M 219.73077,223.30107 c 0.22685,-0.007 0.45359,0 0.6821,0 2.69198,2e-5 5.04291,0.47291 6.93456,1.36417 2.01899,0.94582 3.46275,2.35093 4.26307,4.20622 0.78213,1.80073 0.98675,3.8447 0.56839,6.08196 0,1e-5 -0.17051,0.85262 -0.17051,0.85262 1e-5,-3e-5 -6.65036,0 -6.65036,0 -3e-5,-3e-5 0.0568,-0.79579 0.0568,-0.79579 0.17192,-1.56312 -0.0219,-2.79231 -0.62526,-3.63779 -0.0786,-0.10603 -0.19256,-0.24601 -0.2842,-0.34105 -0.15006,-0.1532 -0.37545,-0.32832 -0.5684,-0.45473 -0.93054,-0.58613 -2.38616,-0.90946 -4.26306,-0.90946 -2.49189,2e-5 -4.35399,0.43426 -5.62722,1.30735 -1.23686,0.85489 -2.01899,1.80981 -2.27363,2.95571 -0.25467,1.1641 0.16369,1.7757 0.45473,2.10311 0.009,0.009 0.0458,0.0467 0.0568,0.0568 0.36856,0.31408 1.64839,1.05041 5.62723,1.98942 3.60141,0.87308 5.98648,1.65748 7.33246,2.33047 2.0372,1.03676 3.46047,2.38048 4.20623,4.03569 0.74572,1.63704 0.90944,3.55368 0.45472,5.62724 -0.45472,2.01897 -1.48468,3.88108 -3.01256,5.62724 -1.50968,1.74613 -3.4309,3.1285 -5.74092,4.09251 -2.29184,0.94584 -4.80644,1.47786 -7.38929,1.47786 -3.27403,-1e-5 -5.90233,-0.49565 -7.9577,-1.47786 -2.14631,-1.01857 -3.69465,-2.62603 -4.60409,-4.71777 -0.87308,-2.03718 -1.05952,-4.34946 -0.56842,-6.87772 0,-3e-5 0.17053,-0.79578 0.17053,-0.79578 0,0 6.53668,0 6.53668,0 0,0 -0.0568,0.79578 -0.0568,0.79578 -0.16371,1.50968 -0.002,2.72834 0.39789,3.63779 0.38196,0.8731 1.10953,1.59609 2.27362,2.15996 1.23684,0.60022 2.78291,0.90944 4.54725,0.90944 1.58245,-1e-5 3.02849,-0.26601 4.31991,-0.73891 1.27322,-0.45472 2.28499,-1.05498 3.01255,-1.81891 0.70935,-0.76397 1.12545,-1.57107 1.30734,-2.44416 0.18189,-0.78212 0.13869,-1.44374 -0.17053,-1.98942 -0.34559,-0.58202 -1.02995,-1.09817 -2.10309,-1.5347 0,-10e-6 -5.57041,-1.64838 -5.57041,-1.64838 -3.11032,-0.78212 -5.20432,-1.52788 -6.42299,-2.27362 -1.65522,-0.9822 -2.84886,-2.24181 -3.4673,-3.75149 -0.61842,-1.49153 -0.68435,-3.14444 -0.28419,-4.94515 0.41835,-1.92804 1.34826,-3.76285 2.78519,-5.39987 1.45514,-1.65522 3.33314,-2.95344 5.5704,-3.80833 1.97805,-0.74176 4.05969,-1.17675 6.25247,-1.25049 z m 59.68278,0.11368 c 0.35973,-0.0281 0.69798,0 1.07996,0 2e-5,0 4.09254,0.45472 4.09254,0.45472 -10e-6,0 1.36417,0.11369 1.36417,0.11369 2e-5,1e-5 -1.98942,5.05881 -1.98942,5.05881 -1e-5,2e-5 -0.39789,0.79578 -0.39789,0.79578 0,-2e-5 -3.12623,-0.2842 -3.12623,-0.2842 -0.9231,0 -1.6012,0.14242 -2.04627,0.45472 -0.0295,0.0223 -0.0864,0.0898 -0.11368,0.11368 -0.0596,0.0523 -0.15991,0.14355 -0.22736,0.22737 -0.2737,0.35895 -0.60707,1.00039 -0.85261,2.15995 -2e-5,0 -0.11823,0.49109 -0.22736,0.90945 1.43694,1e-5 4.88829,0 4.88829,0 0,1e-5 -1.25049,5.62722 -1.25049,5.62722 0,-1e-5 -3.57414,0 -4.77461,0 -0.3638,1.637 -4.83147,21.65632 -4.83147,21.65632 -2e-5,-2e-5 -6.59353,0 -6.59353,0 -2e-5,-2e-5 4.2858,-19.23717 4.83147,-21.65632 -1.10956,-1e-5 -3.80833,0 -3.80833,0 0,-1e-5 1.2505,-5.62722 1.2505,-5.62722 10e-6,1e-5 2.71471,0 3.75147,0 0.18189,-0.78212 0.45472,-1.76207 0.45472,-1.76207 0.40017,-1.8189 0.81851,-3.12624 1.36417,-4.03569 0.74579,-1.25503 1.79847,-2.30546 3.12627,-3.0694 1.09362,-0.63546 2.47677,-1.0154 4.03569,-1.13681 z m 15.74487,0.2842 c -2e-5,-1e-5 -1.72341,7.75535 -2.15995,9.71977 1.27322,1e-5 4.26306,0 4.26306,0 0,1e-5 -1.25049,5.62722 -1.25049,5.62722 -2e-5,-1e-5 -3.13535,0 -4.26306,0 -0.34561,1.56424 -3.0694,13.69863 -3.0694,13.69863 2e-5,-3e-5 -0.22737,1.45739 -0.22737,1.87574 3e-4,0.014 -10e-4,0.0466 0,0.0568 9e-4,0.004 -10e-4,0.0533 0,0.0569 0.002,0.003 0.0546,-0.002 0.0568,0 0,-3e-5 0.68211,0.0569 0.68211,0.0569 0,0 3.12624,-0.22736 3.12624,-0.22736 0,0 -0.34105,5.05882 -0.34105,5.05882 2e-5,0 0.0568,0.90945 0.0568,0.90945 -2e-5,-3e-5 -4.49043,0.51157 -4.49043,0.51157 -1.78251,-2e-5 -3.08987,-0.29102 -4.03569,-0.90944 -1.00037,-0.65485 -1.58244,-1.52335 -1.8189,-2.61468 -0.0364,-0.20009 -0.11369,-0.49111 -0.11369,-0.90945 0,-0.81852 0.15462,-2.20315 0.68209,-4.60409 3e-5,2e-5 2.38958,-10.70426 2.89888,-12.95971 -0.85485,-1e-5 -3.12624,0 -3.12624,0 3e-5,-1e-5 1.25049,-5.62722 1.25049,-5.62722 -2e-5,1e-5 2.21679,0 3.12625,0 0.291,-1.3096 1.30733,-5.79776 1.30733,-5.79776 0,2e-5 5.2862,-2.78519 5.2862,-2.78519 -1e-5,2e-5 2.15994,-1.13681 2.15994,-1.13681 z m -209.458062,0.22736 c 2.2e-5,0 25.578332,0 25.578332,0 0,0 -1.42102,6.36617 -1.42102,6.36617 0,2e-5 -17.063584,0 -18.700597,0 -0.291008,1.29145 -1.457397,6.52077 -1.875744,8.41243 2.364587,0 16.199601,0 16.199601,0 0,0 -1.42102,6.36614 -1.42102,6.36614 -1e-5,0 -14.562581,0 -16.199605,0 -0.345589,1.58245 -3.467285,15.63121 -3.467285,15.63121 2.1e-5,-2e-5 -6.877718,0 -6.877718,0 1.1e-5,-2e-5 8.185056,-36.77595 8.185056,-36.77595 z m 34.274952,8.98085 c 0.25671,-0.0316 0.53715,0 0.79577,0 1.63702,0 3.14898,0.49792 4.60411,1.53469 0,2e-5 0.90944,0.62524 0.90944,0.62524 0,0 -3.52412,5.79776 -3.52412,5.79776 0,-2e-5 -0.96628,-0.68209 -0.96628,-0.68209 -0.70938,-0.45471 -1.47331,-0.68209 -2.27363,-0.68209 -0.69119,2e-5 -1.33463,0.24555 -1.98943,0.68209 -0.69117,0.45472 -1.2687,1.05723 -1.70522,1.87575 -0.76394,1.40057 -1.32326,2.96935 -1.70522,4.66094 0,1e-5 -3.0694,13.98281 -3.0694,13.98281 0,-2e-5 -6.59353,0 -6.59353,0 0,-2e-5 6.08197,-27.28354 6.08197,-27.28354 2e-5,1e-5 6.13879,0 6.13879,0 0,1e-5 -0.21146,0.82761 -0.28421,1.13681 0.29103,-0.21825 0.59796,-0.51839 0.85262,-0.68209 0.88103,-0.52576 1.81159,-0.85371 2.72834,-0.96628 z m 19.55321,0 c 0.39701,-0.0301 0.78783,0 1.19367,0 3.71057,0 6.51848,1.3005 8.35557,3.86516 1.1459,1.65519 1.76208,3.70146 1.76208,6.13879 0,1.34598 -0.16598,2.7943 -0.51156,4.37674 0,0 -0.51159,1.98943 -0.51159,1.98943 0,-2e-5 -16.67478,0 -18.53007,0 -0.0364,0.38195 -0.0568,0.79122 -0.0568,1.13681 0,1.41876 0.29102,2.53509 0.90945,3.35361 0.29387,0.40014 0.63456,0.76052 1.02314,1.02313 0.73256,0.47775 1.67823,0.73893 2.78519,0.73893 1.34601,-2e-5 2.52827,-0.37061 3.6378,-1.07998 1.05499,-0.67299 2.06447,-1.74841 2.95573,-3.23991 0,-4e-5 7.04824,0 7.04824,0 0,-4e-5 -0.62523,1.36417 -0.62523,1.36417 -1.346,2.72837 -3.22402,4.85647 -5.5704,6.36616 -2.34638,1.50969 -5.14978,2.33046 -8.24191,2.33046 -4.01978,-1e-5 -7.01188,-1.30051 -8.86716,-3.86516 -1.83708,-2.51011 -2.23269,-5.97965 -1.25049,-10.34502 0.98222,-4.43811 2.94208,-7.98497 5.79775,-10.45869 2.55955,-2.21933 5.46395,-3.45032 8.69663,-3.69463 z m 29.61403,0 c 0.39699,-0.0301 0.78781,0 1.19364,0 3.71058,0 6.51851,1.3005 8.3556,3.86516 1.14591,1.65519 1.76206,3.70146 1.76206,6.13879 0,1.32779 -0.16598,2.75564 -0.51158,4.3199 0,2e-5 -0.51155,2.04627 -0.51155,2.04627 0,-2e-5 -16.67481,0 -18.53008,0 -0.0182,0.25461 -0.0386,0.48429 -0.0568,0.73893 -0.0137,0.0955 0.006,0.24044 0,0.34104 -5.4e-4,0.0164 0,0.041 0,0.0568 0,0.27285 0.0386,0.54112 0.0568,0.79578 0.0909,1.03675 0.36151,1.90303 0.85261,2.55783 0.0935,0.12732 0.18142,0.28448 0.2842,0.39789 0.83308,0.89124 2.01216,1.36417 3.52413,1.36417 1.346,-2e-5 2.54646,-0.37061 3.63781,-1.07998 1.05498,-0.67299 2.06445,-1.74841 2.95571,-3.23991 0,-3e-5 7.10509,0 7.10509,0 -1e-5,-3e-5 -0.68209,1.36417 -0.68209,1.36417 -1.34598,2.72837 -3.224,4.85647 -5.57039,6.36616 -2.34639,1.50969 -5.14977,2.33046 -8.2419,2.33046 -4.01976,-1e-5 -7.01187,-1.3005 -8.86715,-3.86516 -1.20048,-1.63703 -1.76207,-3.72193 -1.76207,-6.19563 0,-0.382 0.0205,-0.79351 0.0568,-1.19366 0.0727,-0.94582 0.21827,-1.90075 0.45473,-2.95573 0.98223,-4.41992 2.88524,-7.98497 5.74091,-10.45869 2.55954,-2.21933 5.5208,-3.45032 8.75348,-3.69463 z m 80.65697,0 c 0.40623,-0.0313 0.77986,0 1.19365,0 3.78333,0 6.69131,1.28004 8.58296,3.80832 1.87349,2.52824 2.3282,5.93871 1.36417,10.23131 -0.74574,3.34681 -1.82344,6.05014 -3.29675,8.01456 -1.47334,1.96443 -3.35134,3.56959 -5.57041,4.66093 -2.20083,1.09135 -4.53134,1.64838 -6.87772,1.64838 -3.85607,-1e-5 -6.72767,-1.3187 -8.58295,-3.86516 -1.20049,-1.61881 -1.8189,-3.70374 -1.8189,-6.19563 2e-5,-1.346 0.1478,-2.77611 0.51157,-4.37674 1.09136,-4.87468 3.31949,-8.5875 6.59353,-10.97026 2.40321,-1.73476 5.05721,-2.73713 7.90085,-2.95571 z m 99.86915,0 c 0.47958,-0.0296 0.92366,0 1.42102,0 2.29182,0 4.09253,0.23189 5.45671,0.79575 1.45513,0.58207 2.48735,1.40511 3.0694,2.38732 0.56388,0.9276 0.85262,2.06673 0.85262,3.46727 1e-5,3e-5 -0.68212,4.14938 -0.68212,4.14938 4e-5,0 -1.25047,5.62724 -1.25047,5.62724 -1.07318,4.80188 -1.30961,6.60262 -1.36419,7.27562 -0.0546,0.90946 0.0295,1.79616 0.28421,2.61467 2e-5,-3e-5 0.45472,1.47785 0.45472,1.47785 2e-5,-2e-5 -6.7072,0 -6.7072,0 -2e-5,-2e-5 -0.28421,-0.85262 -0.28421,-0.85262 -0.10913,-0.40013 -0.0773,-0.90944 -0.11368,-1.36417 -1.27322,0.78214 -2.54873,1.47559 -3.69464,1.87575 -1.69157,0.58207 -3.44682,0.90944 -5.22935,0.90944 -3.09211,-1e-5 -5.38167,-0.80485 -6.76405,-2.38731 -1.05495,-1.16409 -1.53469,-2.58738 -1.53469,-4.20621 -2e-5,-0.61842 0.0818,-1.25959 0.22735,-1.93257 0.30921,-1.38237 0.87081,-2.66244 1.76207,-3.80835 0.87308,-1.12774 1.90531,-2.05535 3.0694,-2.72834 1.12774,-0.67298 2.38504,-1.15045 3.69465,-1.47786 -2e-5,0 4.03569,-0.68209 4.03569,-0.68209 3.11034,-0.3638 5.4317,-0.81623 7.10509,-1.30733 0.0364,-0.18189 0.11368,-0.39789 0.11368,-0.39789 0.26374,-1.17033 0.23074,-2.05001 -0.0569,-2.50099 -0.0211,-0.0291 -0.0898,-0.0886 -0.11367,-0.11369 -0.0614,-0.0655 -0.15577,-0.16831 -0.22737,-0.22736 -0.68411,-0.54136 -1.85073,-0.79576 -3.41043,-0.79576 -1.76434,0 -3.0694,0.28875 -3.97886,0.85259 -0.89126,0.56388 -1.7166,1.5961 -2.44415,3.0694 -1e-5,-1e-5 -6.87773,0 -6.87773,0 2e-5,-1e-5 0.62525,-1.36417 0.62525,-1.36417 0.81848,-1.89168 1.7939,-3.46046 3.01256,-4.66094 1.21867,-1.2005 2.86477,-2.13039 4.77462,-2.78518 1.46363,-0.48317 3.06186,-0.80378 4.77462,-0.90945 z m 28.81825,0 c 0.25649,-0.0316 0.53713,0 0.79577,0 1.65518,0 3.20581,0.49792 4.66094,1.53469 2e-5,2e-5 0.8526,0.62524 0.8526,0.62524 2e-5,0 -3.52411,5.79776 -3.52411,5.79776 1e-5,-2e-5 -0.9663,-0.68209 -0.9663,-0.68209 -0.70936,-0.45471 -1.43467,-0.68209 -2.21679,-0.68209 -0.69121,2e-5 -1.37326,0.24555 -2.04628,0.68209 -0.69117,0.45472 -1.19364,1.05723 -1.64836,1.87575 -0.74577,1.40057 -1.32326,2.96935 -1.70523,4.66094 -2e-5,1e-5 -3.12624,13.98281 -3.12624,13.98281 2e-5,-2e-5 -6.59351,0 -6.59351,0 0,-2e-5 6.08194,-27.28354 6.08194,-27.28354 -1e-5,1e-5 6.13879,0 6.13879,0 0,1e-5 -0.1546,0.82761 -0.22735,1.13681 0.29101,-0.21825 0.57977,-0.51839 0.85261,-0.68209 0.86681,-0.52576 1.75543,-0.85371 2.67152,-0.96628 z m 19.49635,0 c 0.39664,-0.0301 0.78783,0 1.19367,0 3.71057,0 6.53667,1.3005 8.35559,3.86516 1.16411,1.65519 1.76206,3.70146 1.76206,6.13879 -2e-5,1.34598 -0.22282,2.7943 -0.56841,4.37674 0,0 -0.45472,1.98943 -0.45472,1.98943 -10e-6,-2e-5 -16.693,0 -18.53007,0 -0.0364,0.38195 -0.1137,0.79122 -0.1137,1.13681 0,1.41876 0.30922,2.53509 0.90946,3.35361 0.0935,0.12732 0.23787,0.28448 0.34104,0.39789 0.0597,0.0637 0.16439,0.16824 0.22737,0.22735 0.81317,0.73922 1.91979,1.13682 3.29674,1.13682 1.34602,-2e-5 2.52829,-0.37061 3.63782,-1.07998 1.05498,-0.67299 2.04628,-1.74841 2.95572,-3.23991 -2e-5,-4e-5 7.10509,0 7.10509,0 0,-4e-5 -0.68209,1.36417 -0.68209,1.36417 -1.346,2.72837 -3.24219,4.85647 -5.57039,6.36616 -2.36456,1.50969 -5.13158,2.33046 -8.24191,2.33046 -4.01975,-1e-5 -6.95503,-1.30051 -8.81031,-3.86516 -1.83712,-2.51011 -2.27136,-5.97965 -1.30733,-10.34502 0.98219,-4.43811 2.88523,-7.98497 5.74091,-10.45869 2.57574,-2.21933 5.52376,-3.45032 8.75346,-3.69463 z m -99.5281,0.51156 c 2e-5,1e-5 6.76406,0 6.76406,0 2e-5,1e-5 0.83441,16.19052 0.8526,16.42695 0.27283,-0.57979 0.48452,-1.06759 0.51158,-1.1368 10e-6,2e-5 7.44613,-15.29015 7.44613,-15.29015 2e-5,1e-5 6.19563,0 6.19563,0 -10e-6,1e-5 0.56841,15.99497 0.56841,16.08591 0.18192,-0.32737 8.46927,-16.08591 8.46927,-16.08591 -2e-5,1e-5 6.70721,0 6.70721,0 -10e-6,1e-5 -14.77859,27.28354 -14.77859,27.28354 2e-5,-2e-5 -6.08196,0 -6.08196,0 0,-2e-5 -0.58886,-14.79449 -0.62524,-15.63121 -2.51012,5.14752 -7.61668,15.63121 -7.61668,15.63121 0,-2e-5 -6.25245,0 -6.25245,0 0,-2e-5 -2.15997,-27.28354 -2.15997,-27.28354 z m -158.81296,5.1725 c -1.56686,0.0661 -2.98982,0.63092 -4.31988,1.70522 -1.05496,0.8367 -1.76663,1.98489 -2.33049,3.23992 0,2e-5 11.19762,0 11.19762,0 0.0182,-0.20006 0.0568,-0.44335 0.0568,-0.62525 -2e-5,-1.03674 -0.18417,-1.84163 -0.51156,-2.3873 -0.8003,-1.30962 -1.98714,-1.93259 -3.75149,-1.93259 -0.1057,0 -0.23658,-0.004 -0.34104,0 z m 29.614,0 c -1.56684,0.0661 -2.98981,0.63092 -4.31989,1.70522 -1.05498,0.8367 -1.74841,1.98489 -2.33045,3.23992 0,2e-5 11.19761,0 11.19761,0 0.0181,-0.20006 0.0568,-0.44335 0.0568,-0.62525 -10e-6,-1.03674 -0.16597,-1.84163 -0.51157,-2.3873 -0.15887,-0.26602 -0.37379,-0.53055 -0.56841,-0.73892 -0.75945,-0.78477 -1.80469,-1.19367 -3.18307,-1.19367 -0.10571,0 -0.23659,-0.004 -0.34106,0 z m 229.06812,0 c -1.61126,0.0496 -3.116,0.59514 -4.49042,1.70522 -1.03678,0.8367 -1.74843,1.98489 -2.33048,3.23992 3e-5,2e-5 11.14079,0 11.14079,0 0.0181,-0.20006 0.0569,-0.44335 0.0569,-0.62525 -10e-6,-1.03674 -0.16598,-1.84163 -0.51158,-2.3873 -0.78212,-1.29144 -1.98715,-1.91439 -3.75148,-1.93259 -0.0523,5.7e-4 -0.0617,-0.001 -0.11368,0 z m -148.92269,0.11369 c -1.5036,0.17855 -2.90171,0.86454 -4.20622,2.04626 -1.56424,1.41876 -2.69879,3.6469 -3.35359,6.59352 -0.27284,1.23686 -0.39789,2.29409 -0.39789,3.23992 2e-5,1.29141 0.24781,2.30546 0.73893,3.0694 0.13074,0.19609 0.30417,0.40331 0.45473,0.56841 0.80858,0.85854 1.9377,1.30734 3.3536,1.30734 1.83708,-2e-5 3.45591,-0.68436 5.00197,-2.10311 1.56429,-1.43695 2.68061,-3.68783 3.3536,-6.7072 0.61846,-2.76475 0.53204,-4.82919 -0.34103,-6.1388 -0.83669,-1.27324 -2.05991,-1.87574 -3.75148,-1.87574 -0.28705,0 -0.57419,-0.0331 -0.85262,0 z m 102.71118,9.94712 c -1.54604,0.41833 -3.27858,0.77075 -5.57039,1.07998 -1.70975,0.25466 -2.92844,0.52292 -3.63781,0.79577 -0.61841,0.25463 -1.11635,0.60705 -1.5347,1.07997 -0.40017,0.45469 -0.66844,0.93219 -0.79575,1.47786 -0.0364,0.21828 -0.0569,0.44335 -0.0569,0.62525 0,0.0147 -3.3e-4,0.0422 0,0.0568 0.002,0.0433 -0.004,0.12875 0,0.17051 0.0114,0.0826 0.0344,0.20736 0.0569,0.28421 0.009,0.0253 0.0475,0.089 0.0568,0.11368 0.0199,0.0489 0.0321,0.12385 0.0568,0.17052 0.0259,0.0462 0.0831,0.12639 0.11369,0.17052 0.0476,0.0655 0.11253,0.16598 0.17053,0.22736 0.45473,0.50929 1.36189,0.73894 2.6715,0.73894 1.43696,10e-6 2.81931,-0.27284 4.09254,-0.90946 1.25506,-0.61842 2.2668,-1.54152 3.01255,-2.61467 0.5457,-0.76395 0.98222,-1.93942 1.36418,-3.46728 z"
         id="path2579"
         inkscape:connector-curvature="0" />
      <path
         d="m 398.51034,238.6111 c -0.0182,0 -0.0364,0 -0.0546,0 1.76434,0.0181 2.92844,0.61844 3.71056,1.90985 0.3456,0.54567 0.52749,1.36418 0.52749,2.40096 0,0.18189 -0.0364,0.41835 -0.0546,0.61842 0,0 0.0727,0 0.0727,0 0,-0.20007 0.0364,-0.43653 0.0364,-0.61842 0,-1.03678 -0.1637,-1.85529 -0.50929,-2.40096 -0.78213,-1.30961 -1.96442,-1.90985 -3.72875,-1.90985 z"
         id="path2583"
         style="fill:#bd0000;fill-opacity:1;fill-rule:evenodd;stroke:none;stroke-width:1.06666669pt;stroke-linecap:butt;stroke-linejoin:miter"
         inkscape:connector-curvature="0" />
      <g
         id="g2587"
         style="fill:#bd0000;fill-opacity:1;fill-rule:evenodd;stroke:none;stroke-width:1.00000003pt;stroke-linecap:butt;stroke-linejoin:miter"
         transform="matrix(1.705222,0,0,1.705222,28.335441,323.44652)">
        <path
           id="path2589"
           d="m 0,38.4 c 0,0 7.9573333,0 7.9573333,0 0,0 3.5733337,-14.933333 3.5733337,-14.933333 0,0 12.928,0 12.928,0 0,0 1.664,-6.4 1.664,-6.4 0,0 -12.981334,0 -12.981334,0 0,0 2.154667,-9.6000003 2.154667,-9.6000003 0,0 13.813333,0 13.813333,0 0,0 1.664,-7.4666667 1.664,-7.4666667 C 30.773333,0 8.96,0 8.96,0 8.96,0 0,38.4 0,38.4 Z"
           style="fill:#bd0000;fill-opacity:1;stroke-width:1.06666669pt"
           inkscape:connector-curvature="0" />
      </g>
      <g
         id="g2591"
         style="fill:#bd0000;fill-opacity:1;fill-rule:evenodd;stroke:none;stroke-width:1.00000003pt;stroke-linecap:butt;stroke-linejoin:miter"
         transform="matrix(1.705222,0,0,1.705222,75.535974,341.63553)">
        <path
           id="path2593"
           d="m 8.0106667,27.733333 c 0,0 2.3893333,-10.026666 2.3893333,-10.026666 1.258667,-5.429334 3.914667,-10.2400003 8.938667,-10.2400003 0.448,0 0.885333,0.224 1.216,0.2773333 0,0 1.941333,-7.69066667 1.941333,-7.69066667 C 22.048,0.05333333 21.557333,0 21.002667,0 17.301333,0 14.197333,2.6026667 12.128,6.336 c 0,0 -0.213333,0 -0.213333,0 0.309333,-1.824 0.576,-3.552 0.778666,-5.2693333 0,0 -6.8586663,0 -6.8586663,0 C 5.44,3.2853333 4.832,7.6266667 3.904,11.541333 c 0,0 -3.904,16.192 -3.904,16.192 0,0 8.0106667,0 8.0106667,0 z"
           style="fill:#bd0000;fill-opacity:1;stroke-width:1.06666669pt"
           inkscape:connector-curvature="0" />
      </g>
      <g
         id="g2595"
         style="fill:#bd0000;fill-opacity:1;fill-rule:evenodd;stroke:none;stroke-width:1.00000003pt;stroke-linecap:butt;stroke-linejoin:miter"
         transform="matrix(1.705222,0,0,1.705222,113.06003,341.63553)">
        <path
           id="path2597"
           d="m 21.397333,20.533333 c -2.208,1.077334 -4.725333,0.8 -7.658666,0.8 -2.314667,0 -4.106667,-0.405333 -5.0880003,-1.194666 -0.512,-0.864 -0.7253334,-2.208 -0.6826667,-3.072 10.805333,0.288 17.621333,-2.208 17.962667,-9.034667 C 26.186667,2.88 22.421333,0 16.949333,0 7.1786667,0 0.77866667,8.6186667 0.36266667,16.917333 0,24.16 3.7546667,27.733333 11.498667,27.733333 c 2.976,0 6.922666,-0.341333 10.154666,-1.312 0,0 -0.256,-5.888 -0.256,-5.888 z M 18.474667,8.032 c -0.128,2.538667 -3.264,2.688 -9.4400003,2.634667 C 9.7066667,8.4373333 11.968,6.4 15.669333,6.4 c 1.824,0 2.869334,0.6933333 2.805334,1.632 z"
           style="fill:#bd0000;fill-opacity:1;stroke-width:1.06666669pt"
           inkscape:connector-curvature="0" />
      </g>
      <g
         id="g2599"
         style="fill:#bd0000;fill-opacity:1;fill-rule:evenodd;stroke:none;stroke-width:1.00000003pt;stroke-linecap:butt;stroke-linejoin:miter"
         transform="matrix(1.705222,0,0,1.705222,161.29737,341.63553)">
        <path
           id="path2601"
           d="m 21.386667,20.533333 c -2.208,1.077334 -4.725334,0.8 -7.648,0.8 -2.325334,0 -4.106667,-0.405333 -5.0880003,-1.194666 -0.512,-0.864 -0.736,-2.208 -0.6933334,-3.072 C 18.773333,17.354667 25.578667,14.858667 25.930667,8.032 26.186667,2.88 22.421333,0 16.949333,0 7.168,0 0.768,8.6186667 0.352,16.917333 0,24.16 3.7546667,27.733333 11.488,27.733333 c 2.986667,0 6.933333,-0.341333 10.165333,-1.312 0,0 -0.266666,-5.888 -0.266666,-5.888 z M 18.474667,8.032 c -0.128,2.538667 -3.264,2.688 -9.450667,2.634667 C 9.7066667,8.4373333 11.957333,6.4 15.658667,6.4 c 1.824,0 2.88,0.6933333 2.816,1.632 z"
           style="fill:#bd0000;fill-opacity:1;stroke-width:1.06666669pt"
           inkscape:connector-curvature="0" />
      </g>
      <g
         id="g2603"
         style="fill:#bd0000;fill-opacity:1;fill-rule:evenodd;stroke:none;stroke-width:1.00000003pt;stroke-linecap:butt;stroke-linejoin:miter"
         transform="matrix(1.705222,0,0,1.705222,226.61417,341.63553)">
        <path
           id="path2605"
           d="M 24.256,27.733333 C 24.32,24.352 25.130667,19.04 25.973333,15.552 c 0,0 3.424,-14.4853333 3.424,-14.4853333 C 27.221333,0.33066667 23.829333,0 20.565333,0 7.3173333,0 0.74666667,9.8133333 0.288,19.008 0,24.778667 3.1253333,27.733333 7.9893333,27.733333 c 3.1466667,0 6.6986667,-1.525333 9.4613337,-6.112 0,0 0.117333,0 0.117333,0 -0.213333,2.208 -0.469333,4.352 -0.608,6.112 0,0 7.296,0 7.296,0 z m -5.472,-15.232 c -1.557333,6.784 -4.736,8.832 -7.104,8.832 -2.208,0 -3.168,-1.568 -3.04,-3.850666 C 8.896,12.330667 12.970667,6.4 18.112,6.4 c 0.832,0 1.482667,-0.1493333 2.090667,-0.2986667 0,0 -1.418667,6.3999997 -1.418667,6.3999997 z"
           style="fill:#bd0000;fill-opacity:1;stroke-width:1.06666669pt"
           inkscape:connector-curvature="0" />
      </g>
      <g
         id="g2607"
         style="fill:#bd0000;fill-opacity:1;fill-rule:evenodd;stroke:none;stroke-width:1.00000003pt;stroke-linecap:butt;stroke-linejoin:miter"
         transform="matrix(1.705222,0,0,1.705222,276.87049,341.63553)">
        <path
           id="path2609"
           d="M 0,26.474667 C 1.536,27.669333 4.7573333,27.68 8.1173333,27.733333 15.296,27.786667 20.714667,24.650667 21.034667,18.890667 21.216,15.050667 18.24,12.778667 15.328,11.253333 13.226667,10.24 12.170667,9.2693333 12.224,8.1386667 12.298667,6.6133333 13.728,6.4 15.829333,6.4 c 2.368,0 4.266667,0.288 5.354667,0.5013333 0,0 2.154667,-5.7813333 2.154667,-5.7813333 C 22.112,0.384 19.658667,0 16.512,0 9.5466667,0 4.448,3.68 4.16,9.2693333 3.9893333,12.725333 6.4746667,15.050667 9.4826667,16.629333 c 2.4320003,1.248 3.2640003,2.208 3.2000003,3.562667 C 12.608,21.557333 11.392,21.333333 9.184,21.333333 c -2.592,0 -5.4613333,-0.341333 -6.976,-0.576 0,0 -2.208,5.717334 -2.208,5.717334 z"
           style="fill:#bd0000;fill-opacity:1;stroke-width:1.06666669pt"
           inkscape:connector-curvature="0" />
      </g>
      <g
         id="g2611"
         style="fill:#bd0000;fill-opacity:1;fill-rule:evenodd;stroke:none;stroke-width:1.00000003pt;stroke-linecap:butt;stroke-linejoin:miter"
         transform="matrix(1.705222,0,0,1.705222,335.89385,321.62764)">
        <path
           id="path2613"
           d="M 7.9466667,39.466667 C 7.9466667,39.466667 14.4,12.8 14.4,12.8 c 0,0 -7.904,0 -7.904,0 0,0 -6.496,26.666667 -6.496,26.666667 0,0 7.9466667,0 7.9466667,0 z M 11.648,9.6 c 2.709333,0 5.12,-2.24 5.269333,-6.08 C 17.045333,0.91733333 15.36,0 12.874667,0 10.282667,0 7.9146667,1.6853333 7.776,4.2026667 7.648,6.7413333 9.3333333,9.6 11.648,9.6 Z"
           style="fill:#bd0000;fill-opacity:1;stroke-width:1.06666669pt"
           inkscape:connector-curvature="0" />
      </g>
      <g
         id="g2615"
         style="fill:#bd0000;fill-opacity:1;fill-rule:evenodd;stroke:none;stroke-width:1.00000003pt;stroke-linecap:butt;stroke-linejoin:miter"
         transform="matrix(1.705222,0,0,1.705222,361.88595,342.89057)">
        <path
           id="path2617"
           d="m 7.9573333,26.997333 c 0,0 2.8159997,-12.010666 2.8159997,-12.010666 1.461334,-6.1120003 4.608,-8.2560003 7.2,-8.2560003 2.048,0 2.645334,0.8746666 2.549334,2.144 -0.05333,1.024 -0.213334,2.1013333 -0.426667,3.0613333 0,0 -3.584,15.061333 -3.584,15.061333 0,0 7.957333,0 7.957333,0 0,0 3.776,-15.797333 3.776,-15.797333 0.288,-1.3653333 0.608,-3.4026667 0.672,-4.64 C 29.152,1.7493333 26.752,0 22.336,0 c -3.541333,0 -6.986667,1.6426667 -9.706667,5.2053333 0,0 -0.106666,0 -0.106666,0 0,0 0.725333,-4.87466663 0.725333,-4.87466663 0,0 -7.0186667,0 -7.0186667,0 C 5.7706667,2.6133333 5.184,5.376 4.352,8.5973333 c 0,0 -4.352,18.3999997 -4.352,18.3999997 0,0 7.9573333,0 7.9573333,0 z"
           style="fill:#bd0000;fill-opacity:1;stroke-width:1.06666669pt"
           inkscape:connector-curvature="0" />
      </g>
      <g
         id="g2619"
         style="fill:#bd0000;fill-opacity:1;fill-rule:evenodd;stroke:none;stroke-width:1.00000003pt;stroke-linecap:butt;stroke-linejoin:miter"
         transform="matrix(1.705222,0,0,1.705222,433.84179,323.44652)">
        <path
           id="path2621"
           d="m 0,38.4 c 0,0 7.9573333,0 7.9573333,0 0,0 3.5839997,-14.933333 3.5839997,-14.933333 0,0 12.917334,0 12.917334,0 0,0 1.664,-6.4 1.664,-6.4 0,0 -12.981334,0 -12.981334,0 0,0 2.154667,-9.6000003 2.154667,-9.6000003 0,0 13.813333,0 13.813333,0 0,0 1.664,-7.4666667 1.664,-7.4666667 C 30.773333,0 8.96,0 8.96,0 8.96,0 0,38.4 0,38.4 Z"
           style="fill:#bd0000;fill-opacity:1;stroke-width:1.06666669pt"
           inkscape:connector-curvature="0" />
      </g>
      <g
         id="g2623"
         style="fill:#bd0000;fill-opacity:1;fill-rule:evenodd;stroke:none;stroke-width:1.00000003pt;stroke-linecap:butt;stroke-linejoin:miter"
         transform="matrix(1.705222,0,0,1.705222,481.04233,341.63553)">
        <path
           id="path2625"
           d="m 8.0106667,27.733333 c 0,0 2.3893333,-10.026666 2.3893333,-10.026666 1.258667,-5.429334 3.914667,-10.2400003 8.938667,-10.2400003 0.448,0 0.885333,0.224 1.216,0.2773333 0,0 1.941333,-7.69066667 1.941333,-7.69066667 C 22.048,0.05333333 21.557333,0 21.002667,0 17.301333,0 14.197333,2.6026667 12.128,6.336 c 0,0 -0.213333,0 -0.213333,0 0.309333,-1.824 0.576,-3.552 0.778666,-5.2693333 0,0 -6.8586663,0 -6.8586663,0 -0.384,2.2186666 -1.0026667,6.56 -1.9306667,10.4746663 0,0 -3.904,16.192 -3.904,16.192 0,0 8.0106667,0 8.0106667,0 z"
           style="fill:#bd0000;fill-opacity:1;stroke-width:1.06666669pt"
           inkscape:connector-curvature="0" />
      </g>
      <g
         id="g2627"
         style="fill:#bd0000;fill-opacity:1;fill-rule:evenodd;stroke:none;stroke-width:1.00000003pt;stroke-linecap:butt;stroke-linejoin:miter"
         transform="matrix(1.705222,0,0,1.705222,518.56638,341.63553)">
        <path
           id="path2629"
           d="m 21.397333,20.533333 c -2.208,1.077334 -4.725333,0.8 -7.658666,0.8 -2.314667,0 -4.106667,-0.405333 -5.0880003,-1.194666 -0.512,-0.864 -0.7253334,-2.208 -0.6826667,-3.072 10.805333,0.288 17.621333,-2.208 17.962667,-9.034667 C 26.186667,2.88 22.421333,0 16.949333,0 7.1786667,0 0.77866667,8.6186667 0.36266667,16.917333 0,24.16 3.7653333,27.733333 11.498667,27.733333 c 2.976,0 6.933333,-0.341333 10.154666,-1.312 0,0 -0.256,-5.888 -0.256,-5.888 z M 18.474667,8.032 c -0.128,2.538667 -3.264,2.688 -9.4400003,2.634667 C 9.7066667,8.4373333 11.968,6.4 15.669333,6.4 c 1.824,0 2.869334,0.6933333 2.805334,1.632 z"
           style="fill:#bd0000;fill-opacity:1;stroke-width:1.06666669pt"
           inkscape:connector-curvature="0" />
      </g>
      <g
         id="g2631"
         style="fill:#bd0000;fill-opacity:1;fill-rule:evenodd;stroke:none;stroke-width:1.00000003pt;stroke-linecap:butt;stroke-linejoin:miter"
         transform="matrix(1.705222,0,0,1.705222,566.80361,341.63553)">
        <path
           id="path2633"
           d="m 21.386667,20.533333 c -2.208,1.077334 -4.725334,0.8 -7.648,0.8 -2.325334,0 -4.106667,-0.405333 -5.0880003,-1.194666 -0.512,-0.864 -0.736,-2.208 -0.6933334,-3.072 C 18.773333,17.354667 25.578667,14.858667 25.930667,8.032 26.186667,2.88 22.421333,0 16.949333,0 7.168,0 0.768,8.6186667 0.352,16.917333 0,24.16 3.7546667,27.733333 11.488,27.733333 c 2.986667,0 6.933333,-0.341333 10.165333,-1.312 0,0 -0.266666,-5.888 -0.266666,-5.888 z M 18.474667,8.032 c -0.128,2.538667 -3.264,2.688 -9.450667,2.634667 C 9.7066667,8.4373333 11.957333,6.4 15.658667,6.4 c 1.824,0 2.88,0.6933333 2.816,1.632 z"
           style="fill:#bd0000;fill-opacity:1;stroke-width:1.06666669pt"
           inkscape:connector-curvature="0" />
      </g>
      <g
         id="g2635"
         style="fill:#bd0000;fill-opacity:1;fill-rule:evenodd;stroke:none;stroke-width:1.00000003pt;stroke-linecap:butt;stroke-linejoin:miter"
         transform="matrix(1.705222,0,0,1.705222,614.78633,321.62764)">
        <path
           id="path2637"
           d="m 24.864,0 c 0,0 -2.997333,12.117333 -2.997333,12.117333 -1.088,-0.448 -2.506667,-0.384 -3.616,-0.384 C 8.032,11.733333 0.8,20.48 0.32,29.952 0,36.629333 3.5626667,39.466667 8.1493333,39.466667 c 3.2106667,0 6.5919997,-1.418667 9.1519997,-5.088 0,0 0.106667,0 0.106667,0 0,0 -0.608,5.088 -0.608,5.088 0,0 7.232,0 7.232,0 0.330667,-3.2 1.024,-7.008 1.802667,-10.485334 0,0 6.922666,-28.981333 6.922666,-28.981333 0,0 -7.893333,0 -7.893333,0 z m -6.229333,26.048 c -1.248,5.258667 -4.192,7.018667 -6.517334,7.018667 -2.3146663,0 -3.605333,-1.610667 -3.445333,-4.48 0.2666667,-5.312 3.914667,-10.453334 8.661333,-10.453334 1.333334,0 2.474667,0.202667 3.104,0.501334 0,0 -1.802666,7.413333 -1.802666,7.413333 z"
           style="fill:#bd0000;fill-opacity:1;stroke-width:1.06666669pt"
           inkscape:connector-curvature="0" />
      </g>
      <g
         id="g2639"
         style="fill:#bd0000;fill-opacity:1;fill-rule:evenodd;stroke:none;stroke-width:1.00000003pt;stroke-linecap:butt;stroke-linejoin:miter"
         transform="matrix(1.705222,0,0,1.705222,668.8259,341.63553)">
        <path
           id="path2641"
           d="m 11.317333,27.733333 c 9.28,0 16.437334,-7.029333 16.938667,-16.597333 C 28.565333,4.8 24.618667,0 17.333333,0 7.712,0 0.81066667,7.7866667 0.33066667,17.194667 0,24.042667 4.416,27.733333 11.317333,27.733333 Z m 1.248,-6.4 C 9.856,21.333333 8.3626667,19.605333 8.5226667,17.024 8.736,12.725333 11.392,6.4 15.968,6.4 c 3.157333,0 4.128,2.4213333 4,4.8 -0.234667,4.693333 -3.093333,10.133333 -7.402667,10.133333 z"
           style="fill:#bd0000;fill-opacity:1;stroke-width:1.06666669pt"
           inkscape:connector-curvature="0" />
      </g>
      <g
         id="g2643"
         style="fill:#bd0000;fill-opacity:1;fill-rule:evenodd;stroke:none;stroke-width:1.00000003pt;stroke-linecap:butt;stroke-linejoin:miter"
         transform="matrix(1.705222,0,0,1.705222,720.77385,341.63553)">
        <path
           id="path2645"
           d="m 7.68,27.733333 c 0,0 2.88,-12.181333 2.88,-12.181333 1.205333,-5.429333 4.213333,-9.152 6.912,-9.152 1.941333,0 2.474667,1.4186667 2.378667,3.2746667 C 19.797333,10.634667 19.584,11.712 19.36,12.778667 c 0,0 -3.562667,14.954666 -3.562667,14.954666 0,0 7.68,0 7.68,0 0,0 2.88,-12.234666 2.88,-12.234666 C 27.68,9.8986667 30.517333,6.4 33.162667,6.4 c 1.824,0 2.581333,1.3013333 2.496,3.1573333 C 35.605333,10.634667 35.381333,11.818667 35.104,12.896 c 0,0 -3.456,14.837333 -3.456,14.837333 0,0 7.733333,0 7.733333,0 0,0 3.722667,-15.797333 3.722667,-15.797333 0.288,-1.418667 0.618667,-3.6266667 0.672,-4.7573333 C 44.010667,2.4853333 41.717333,0 37.578667,0 34.037333,0 30.592,1.6 27.978667,4.9706667 27.882667,2.5386667 26.144,0 21.834667,0 c -3.488,0 -6.816,1.5786667 -9.482667,5.152 0,0 -0.106667,0 -0.106667,0 0,0 0.714667,-4.0853333 0.714667,-4.0853333 0,0 -6.848,0 -6.848,0 C 5.664,3.3493333 5.12,6.112 4.288,9.3333333 c 0,0 -4.288,18.3999997 -4.288,18.3999997 0,0 7.68,0 7.68,0 z"
           style="fill:#bd0000;fill-opacity:1;stroke-width:1.06666669pt"
           inkscape:connector-curvature="0" />
      </g>
      <path
         style="fill:#bd0000;fill-opacity:0;fill-rule:evenodd;stroke:#bd0000;stroke-width:9.09451485;stroke-linecap:butt;stroke-linejoin:miter;stroke-miterlimit:4;stroke-opacity:1"
         id="path2647"
         d="m 444.88474,266.88677 c 0.73835,1.89826 1.47674,3.79342 2.24586,5.64704 1.18449,2.51816 2.55356,4.92864 4.19951,7.17915 8.89128,12.08625 23.78183,18.70395 42.68727,20.35143 0,0 20.33606,0 20.33606,0 6.42998,-0.50148 13.16765,-1.43675 20.15145,-2.80276 12.04472,-2.35509 24.81244,-5.97312 38.0724,-10.80793 10.04496,-3.66267 20.36683,-7.99599 30.84251,-13.0323 22.81267,-10.93563 46.3791,-25.0401 69.49946,-42.06118 7.61448,-5.60087 14.92131,-11.34787 21.93587,-17.19178 6.43,-5.35015 12.5985,-10.78338 18.49009,-16.27656 16.44421,-15.84735 28.85813,-31.94237 35.88807,-46.07456 7.32216,-14.71669 8.78358,-27.29982 2.7843,-35.22659 -3.67651,-4.86556 -9.82962,-7.47295 -17.75177,-8.08672 35.68804,-26.778357 56.48564,-59.262218 49.02503,-79.742826 -2.36903,-6.536213 -7.5838,-11.41248 -15.05982,-14.10912 -3.32264,-1.1952 -7.06073,-1.952107 -11.13717,-2.29664 0,0 -10.98329,0 -10.98329,0 -15.33662,1.106027 -37.63908,6.597653 -56.55989,15.8704"
         sodipodi:nodetypes="cccccssccccscccsccc"
         inkscape:connector-curvature="0" />
    </g>
  </g>
</svg>
